# xmcd
#
# Track frame offsets: 
#        150
#        21292
#        43922
#        60766
#        80097
#        99176
#        119918
#        137036
#        163102
#        182995
#        198195
#        225965
#        258637
#        275494
#        296198
#
# Disc length: 4237 seconds
#
# Revision: 0
# Processed by: cddbd v1.5.2PL0 Copyright (c) Steve Scherf et al.
# Submitted via: ExactAudioCopy v0.90b4
#
DISCID=dc108b0f
DTITLE=Kim Field And The Mighty Titans Of Tone - Live at The Highway 9
DTITLE=9 Blues Club - Blue Smoke
DYEAR=2008
DGENRE=Blues
TTITLE0=Texas Hop
TTITLE1=Don't Lose Your Cool
TTITLE2=Good Good Lovin'
TTITLE3=The Girl That Radiates That Charm
TTITLE4=Blue Smoke
TTITLE5=It Hurts To Be In Love
TTITLE6=Hard Work
TTITLE7=A Fool For You
TTITLE8=You Belong To Me
TTITLE9=Dis Pas Ca
TTITLE10=You're Losing Me
TTITLE11=That's The Chance You've Got To Take
TTITLE12=Oh Pretty Woman
TTITLE13=Unchain My Heart
TTITLE14=Heavy Breathing
EXTD=
EXTT0=
EXTT1=
EXTT2=
EXTT3=
EXTT4=
EXTT5=
EXTT6=
EXTT7=
EXTT8=
EXTT9=
EXTT10=
EXTT11=
EXTT12=
EXTT13=
EXTT14=
PLAYORDER=
